# xmcd
#
# Track frame offsets: 
#        150
#        19210
#        37028
#        55315
#        75435
#        93332
#        110561
#        130005
#        146921
#        167115
#        182645
#        198923
#
# Disc length: 2856 seconds
#
# Revision: 0
# Processed by: cddbd v1.5.2PL0 Copyright (c) Steve Scherf et al.
# Submitted via: ExactAudioCopy v0.95b4
#
DISCID=a10b260c
DTITLE=Pedro Suárez-Vértiz - Play
DYEAR=2004
DGENRE=Latin
TTITLE0=Cuando Pienses en Volver
TTITLE1=Buscando Razón
TTITLE2=La Española
TTITLE3=Qué Oscuridad
TTITLE4=Lo Olvidé
TTITLE5=Como las Mariposas
TTITLE6=Bailar
TTITLE7=Su Lengua Baila
TTITLE8=Mi Querida Maestra
TTITLE9=Anticuerpos de la Noche
TTITLE10=Dos Mañanas
TTITLE11=Los Niños Se Enamoran
EXTD=
EXTT0=
EXTT1=
EXTT2=
EXTT3=
EXTT4=
EXTT5=
EXTT6=
EXTT7=
EXTT8=
EXTT9=
EXTT10=
EXTT11=
PLAYORDER=
